<svg style="position: absolute; width: 0; height: 0; overflow: hidden; enable-background:new 0 0 590.39 166.33;" version="1.1" xmlns="http://www.w3.org/2000/svg" xmlns:xlink="http://www.w3.org/1999/xlink">
<defs>

<symbol id="logo" viewBox="0 0 590.39 166.33">
<path d="M19.56 68.04c2.4.6 5.28.72 8.4.72 10.2 0 19.2-3 24.72-8.88 4.08-4.2 6.24-9.96 6.24-17.28 0-7.2-2.64-13.08-7.08-16.92-4.8-4.32-12.36-6.72-22.68-6.72-8.4 0-15 .72-20.04 1.56v79.92h10.44v-32.4zm0-39.96c1.8-.48 5.28-.84 9.84-.84 11.52 0 19.08 5.16 19.08 15.84 0 11.16-7.68 17.28-20.28 17.28-3.48 0-6.36-.24-8.64-.84V28.08zM72 15.24h10.56v85.2H72zM95.76 85.08c0 8.4 6 16.68 17.76 16.68 8.28 0 14.52-4.08 17.76-8.64h.36l.84 7.32h9.6c-.72-3.96-.96-8.88-.96-13.92V64.8c0-11.64-4.32-23.76-22.08-23.76-7.32 0-14.28 2.04-19.08 5.16l2.4 6.96c4.08-2.64 9.72-4.32 15.12-4.32 11.88 0 13.2 8.64 13.2 13.44v1.2c-22.44-.12-34.92 7.56-34.92 21.6zm35.16-14.28v10.08c0 1.08-.24 2.28-.6 3.36-1.68 4.92-6.48 9.72-14.04 9.72-5.4 0-9.96-3.24-9.96-10.08 0-11.28 13.08-13.32 24.6-13.08zM182.88 101.64c7.8 0 13.92-1.92 16.68-3.36l-1.8-7.92c-3 1.32-6.96 2.88-12.96 2.88-11.52 0-20.16-8.28-20.16-21.72 0-12.12 7.2-21.96 20.52-21.96 5.76 0 9.72 1.32 12.24 2.76l2.4-8.16c-2.88-1.44-8.4-3-14.64-3-18.96 0-31.2 12.96-31.2 30.84 0 17.76 11.4 29.64 28.92 29.64zM235.56 101.64c9.24 0 15.6-1.92 19.32-3.6l-1.8-7.56c-3.96 1.68-8.52 3-16.08 3-10.56 0-19.68-5.88-19.92-20.16h40.8c.12-1.08.36-2.76.36-4.92 0-10.68-5.04-27.36-24-27.36-16.92 0-27.24 13.8-27.24 31.32s10.68 29.28 28.56 29.28zM233.4 48.6c11.88 0 14.76 10.44 14.64 17.16H217.2c.84-7.32 5.52-17.16 16.2-17.16zM281.88 65.4c0-2.04.12-3.6.72-5.04 1.92-5.76 7.32-10.56 14.16-10.56 9.96 0 13.44 7.92 13.44 17.28v33.36h10.56V65.88c0-20.04-12.48-24.84-20.28-24.84-3.96 0-7.68 1.2-10.8 3-3.24 1.8-5.88 4.44-7.56 7.44h-.24V15.24h-10.56v85.2h10.56V65.4zM361.56 101.76c14.04 0 28.92-9.36 28.92-30.84 0-17.76-11.28-29.88-27.96-29.88-16.08 0-28.8 11.4-28.8 30.84 0 18.36 12.12 29.88 27.84 29.88zm.72-52.8c12.48 0 17.4 12.48 17.4 22.32 0 13.08-7.56 22.56-17.64 22.56-10.32 0-17.64-9.6-17.64-22.32 0-11.04 5.4-22.56 17.88-22.56zM403.8 15.24h10.56v85.2H403.8zM452.75 101.76c9.48 0 16.56-4.92 19.8-11.4h.24l.48 10.08h9.48c-.36-3.96-.48-9.84-.48-15v-70.2h-10.56v34.68h-.24c-2.64-4.68-8.64-8.88-17.52-8.88-14.16 0-26.16 11.88-26.04 31.2.01 17.64 10.81 29.52 24.84 29.52zm3.24-52.44c7.92 0 13.68 5.52 15.24 12.24.36 1.32.48 3.12.48 4.44v10.08c0 1.68-.12 3.12-.48 4.56-1.92 7.92-8.4 12.6-15.48 12.6-11.4 0-17.16-9.72-17.16-21.48.01-12.84 6.48-22.44 17.4-22.44zM522.83 41.04c-16.92 0-27.24 13.8-27.24 31.32s10.68 29.28 28.56 29.28c9.24 0 15.6-1.92 19.32-3.6l-1.8-7.56c-3.96 1.68-8.52 3-16.08 3-10.56 0-19.68-5.88-19.92-20.16h40.8c.12-1.08.36-2.76.36-4.92 0-10.68-5.04-27.36-24-27.36zm13.8 24.72H505.8c.84-7.32 5.52-17.16 16.2-17.16 11.87 0 14.75 10.44 14.63 17.16zM585.59 41.04c-7.08 0-13.44 4.92-16.08 12.72h-.48l-.36-11.4h-9.24c.36 5.4.48 11.28.48 18.12v39.96h10.44V69.48c0-1.8.24-3.48.48-4.92 1.44-7.92 6.72-13.56 14.16-13.56 1.44 0 2.52.12 3.6.36V41.4c-.96-.24-1.8-.36-3-.36zM8.5 134.33h533v8H8.5zM8.5 158.33h337v8H8.5z"/>
</symbol>
</defs>
</svg>
