<svg height="49" width="49" xmlns="http://www.w3.org/2000/svg"><g fill="none"><circle cx="24.5" cy="24.5" fill="#000" r="24.5"/><path d="m15.059 18.556v1.952h-1.728v-1.952zm-1.633 3.377h1.553v8.067h-1.553zm3.008 2.467a5.565 5.565 0 1 1 11.125 0 5.565 5.565 0 1 1 -11.125 0zm9.428 0a3.884 3.884 0 1 0 -7.731 0 3.884 3.884 0 1 0 7.731 0zm2.7 1.886h1.617a2.447 2.447 0 0 0 2.657 2.369c1.408 0 2.433-.544 2.433-1.76 0-2.689-6.355-1.073-6.355-5.2 0-1.792 1.568-3.025 3.825-3.025 2.289 0 3.858 1.329 4 3.378h-1.615a2.149 2.149 0 0 0 -2.385-1.905c-1.344 0-2.161.608-2.161 1.552 0 2.722 6.387.913 6.387 5.187 0 2.049-1.729 3.249-4.129 3.249a3.927 3.927 0 0 1 -4.274-3.845z" fill="#fff"/></g></svg>