<svg height="49" width="49" xmlns="http://www.w3.org/2000/svg"><g fill="none"><circle cx="24.5" cy="24.5" fill="#000" r="24.5"/><g fill="#fff"><path d="M16.56 27.36c0 .704-.576 1.28-1.28 1.28S14 28.064 14 27.36V21.6c0-.704.576-1.28 1.28-1.28s1.28.576 1.28 1.28zm17.92 0c0 .704-.576 1.28-1.28 1.28s-1.28-.576-1.28-1.28V21.6c0-.704.576-1.28 1.28-1.28s1.28.576 1.28 1.28zM22.96 34.4c0 .704-.576 1.28-1.28 1.28s-1.28-.576-1.28-1.28v-5.76c0-.704.576-1.28 1.28-1.28s1.28.576 1.28 1.28zm5.12 0c0 .704-.576 1.28-1.28 1.28s-1.28-.576-1.28-1.28v-5.76c0-.704.576-1.28 1.28-1.28s1.28.576 1.28 1.28z"/><path d="M17.84 20.32v9.6c0 .704.576 1.28 1.28 1.28h10.24c.704 0 1.28-.576 1.28-1.28v-9.6zm6.4-6.4c-3.84 0-6.208 2.304-6.4 5.12h12.8c-.192-2.816-2.56-5.12-6.4-5.12zm-2.56 3.584c-.384 0-.64-.256-.64-.64s.256-.64.64-.64.64.256.64.64c0 .32-.256.64-.64.64zm5.12 0c-.384 0-.64-.256-.64-.64s.256-.64.64-.64.64.256.64.64c0 .32-.256.64-.64.64z"/><path d="M26.992 15.52c-.128 0-.256-.064-.384-.128-.32-.192-.384-.576-.192-.896l1.088-1.6c.192-.32.576-.384.896-.192s.384.576.192.896l-1.088 1.6c-.064.192-.256.32-.512.32zm-5.76-.256c-.192 0-.448-.128-.512-.32l-.832-1.344c-.192-.32-.128-.704.192-.896s.704-.128.896.192l.832 1.344c.192.32.128.704-.192.896-.128.064-.256.128-.384.128z"/></g></g></svg>