<svg height="49" width="49" xmlns="http://www.w3.org/2000/svg"><g fill="none"><circle cx="24.5" cy="24.5" fill="#000" r="24.5"/><path d="m23.2 15.59a789.175 789.175 0 0 1 10.881-1.58c.003 3.18 0 6.359.003 9.54-3.628.013-7.255.069-10.884.08-.002-2.682-.002-5.361 0-8.04zm-9.2 1.282c2.728-.421 5.467-.785 8.207-1.127l.004 7.912c-2.737-.003-5.474.039-8.211.032zm0 7.647c2.735-.009 5.47.035 8.204.03 0 2.645.007 5.29.003 7.935-2.733-.405-5.47-.759-8.207-1.13v-6.834zm9.184.106h10.896c.005 3.172 0 6.343 0 9.517a784.808 784.808 0 0 0 -10.88-1.537l-.016-7.979z" fill="#fff"/></g></svg>